# xmcd
#
# Track frame offsets:
#	150
#	21449
#	41307
#	60983
#	81409
#	106258
#	119797
#	139991
#	158765
#	183682
#	199263
#	215850
#	236753
#	260943
#
# Disc length: 3606 seconds
#
# Revision: 2
# Processed by: cddbd v1.5.2PL0 Copyright (c) Steve Scherf et al.
# Submitted via: audiograbber 1.83.01
#
DISCID=db0e140e
DTITLE=Paul Black - Paul Black and Taxi
DYEAR=2009
DGENRE=Blues Rock
TTITLE0=Piece by Piece
TTITLE1=Double Dealin
TTITLE2=Bad Man
TTITLE3=Pie
TTITLE4=Government Street
TTITLE5=Lady Luck
TTITLE6=Black and White
TTITLE7=Whiskey Bottle Blues
TTITLE8=Fork in the Road
TTITLE9=Let Me Through
TTITLE10=Only You
TTITLE11=I Did it Right
TTITLE12=Smile Again
TTITLE13=Hidden Track - Coyote Arm
EXTD=Audio CD\nOriginal Release Date: July 5 2009\nNumber of Discs: 1\nASIN: B0
EXTD=02FIBVTE
EXTT0=
EXTT1=
EXTT2=
EXTT3=
EXTT4=
EXTT5=
EXTT6=
EXTT7=
EXTT8=
EXTT9=
EXTT10=
EXTT11=
EXTT12=
EXTT13=
PLAYORDER=
